<svg width="90" height="33" viewBox="0 0 90 33" fill="none" xmlns="http://www.w3.org/2000/svg">
<g filter="url(#filter0_d)">
<path d="M5.4785 18.9585C5.2065 18.9585 4.9825 18.8705 4.8065 18.6945C4.6305 18.5185 4.5425 18.2945 4.5425 18.0225V1.1505C4.5425 0.878495 4.6305 0.654495 4.8065 0.478495C4.9825 0.302495 5.2065 0.214496 5.4785 0.214496H9.7985C11.1745 0.214496 12.4305 0.446496 13.5665 0.910495C14.7185 1.3585 15.7105 2.0065 16.5425 2.8545C17.3745 3.6865 18.0145 4.6705 18.4625 5.8065C18.9265 6.9425 19.1585 8.1985 19.1585 9.5745C19.1585 10.9505 18.9265 12.2145 18.4625 13.3665C18.0145 14.5025 17.3745 15.4945 16.5425 16.3425C15.7105 17.1745 14.7185 17.8225 13.5665 18.2865C12.4305 18.7345 11.1745 18.9585 9.7985 18.9585H5.4785ZM6.4145 17.2785H9.7985C11.2705 17.2785 12.5665 16.9505 13.6865 16.2945C14.8225 15.6225 15.7105 14.7105 16.3505 13.5585C16.9905 12.3905 17.3105 11.0625 17.3105 9.5745C17.3105 8.0865 16.9905 6.7665 16.3505 5.61449C15.7105 4.4465 14.8225 3.5345 13.6865 2.8785C12.5665 2.2225 11.2705 1.8945 9.7985 1.8945H6.4145V17.2785ZM28.1953 19.0785C26.9633 19.0785 25.8593 18.7905 24.8833 18.2145C23.9073 17.6225 23.1313 16.8225 22.5553 15.8145C21.9953 14.8065 21.7153 13.6705 21.7153 12.4065C21.7153 11.1265 22.0033 9.9825 22.5793 8.9745C23.1713 7.9665 23.9713 7.1745 24.9793 6.5985C25.9873 6.00649 27.1233 5.71049 28.3873 5.71049C29.6513 5.71049 30.7793 6.00649 31.7713 6.5985C32.7793 7.1745 33.5713 7.9665 34.1473 8.9745C34.7393 9.9825 35.0433 11.1265 35.0593 12.4065V18.0465C35.0593 18.3185 34.9713 18.5425 34.7953 18.7185C34.6193 18.8785 34.3953 18.9585 34.1233 18.9585C33.8513 18.9585 33.6273 18.8785 33.4513 18.7185C33.2753 18.5425 33.1873 18.3185 33.1873 18.0465V16.5825C32.6433 17.3505 31.9393 17.9585 31.0753 18.4065C30.2113 18.8545 29.2513 19.0785 28.1953 19.0785ZM28.3873 17.3985C29.3153 17.3985 30.1393 17.1825 30.8593 16.7505C31.5953 16.3185 32.1713 15.7265 32.5873 14.9745C33.0193 14.2065 33.2353 13.3505 33.2353 12.4065C33.2353 11.4465 33.0193 10.5905 32.5873 9.8385C32.1713 9.0865 31.5953 8.4945 30.8593 8.0625C30.1393 7.6145 29.3153 7.3905 28.3873 7.3905C27.4753 7.3905 26.6513 7.6145 25.9153 8.0625C25.1793 8.4945 24.5953 9.0865 24.1633 9.8385C23.7313 10.5905 23.5153 11.4465 23.5153 12.4065C23.5153 13.3505 23.7313 14.2065 24.1633 14.9745C24.5953 15.7265 25.1793 16.3185 25.9153 16.7505C26.6513 17.1825 27.4753 17.3985 28.3873 17.3985ZM42.0549 18.9585C41.6709 18.9585 41.3829 18.7505 41.1909 18.3345L35.8629 7.0305C35.7669 6.8225 35.7589 6.6145 35.8389 6.4065C35.9189 6.1985 36.0789 6.0385 36.3189 5.9265C36.5429 5.8145 36.7589 5.7985 36.9669 5.8785C37.1749 5.9585 37.3349 6.1025 37.4469 6.3105L42.0549 16.2945L46.6149 6.3105C46.7109 6.0865 46.8709 5.9425 47.0949 5.8785C47.3349 5.7985 47.5669 5.8065 47.7909 5.9025C48.0149 6.0145 48.1669 6.1825 48.2469 6.4065C48.3269 6.6145 48.3189 6.8145 48.2229 7.0065L42.9669 18.3345C42.7749 18.7505 42.4709 18.9585 42.0549 18.9585ZM55.9558 19.0785C54.6598 19.0785 53.5078 18.7985 52.4998 18.2385C51.5078 17.6625 50.7237 16.8705 50.1478 15.8625C49.5878 14.8545 49.3078 13.7025 49.3078 12.4065C49.3078 11.0945 49.5718 9.9425 50.0998 8.9505C50.6438 7.9425 51.3878 7.1505 52.3318 6.5745C53.2758 5.9985 54.3638 5.71049 55.5958 5.71049C56.8118 5.71049 57.8678 5.9905 58.7638 6.5505C59.6758 7.0945 60.3798 7.8545 60.8758 8.8305C61.3718 9.8065 61.6198 10.9185 61.6198 12.1665C61.6198 12.4225 61.5398 12.6305 61.3798 12.7905C61.2198 12.9345 61.0118 13.0065 60.7558 13.0065H51.0598C51.1558 13.8705 51.4198 14.6385 51.8518 15.3105C52.2838 15.9665 52.8518 16.4865 53.5558 16.8705C54.2598 17.2385 55.0598 17.4225 55.9558 17.4225C56.5318 17.4225 57.1078 17.3265 57.6838 17.1345C58.2758 16.9265 58.7478 16.6705 59.0998 16.3665C59.2758 16.2225 59.4758 16.1505 59.6998 16.1505C59.9238 16.1345 60.1158 16.1905 60.2758 16.3185C60.4838 16.5105 60.5878 16.7185 60.5878 16.9425C60.6038 17.1665 60.5158 17.3585 60.3238 17.5185C59.7958 17.9665 59.1238 18.3425 58.3078 18.6465C57.4918 18.9345 56.7078 19.0785 55.9558 19.0785ZM55.5958 7.3665C54.3638 7.3665 53.3478 7.7505 52.5478 8.5185C51.7478 9.2705 51.2678 10.2545 51.1078 11.4705H59.8918C59.7638 10.2545 59.3158 9.2705 58.5478 8.5185C57.7958 7.7505 56.8118 7.3665 55.5958 7.3665ZM60.6716 24.5745C60.3996 24.5745 60.1756 24.4865 59.9996 24.3105C59.8236 24.1505 59.7356 23.9265 59.7356 23.6385C59.7356 23.3665 59.8236 23.1425 59.9996 22.9665C60.1756 22.7905 60.3996 22.7025 60.6716 22.7025C61.7756 22.7025 62.6796 22.3505 63.3836 21.6465C64.0876 20.9425 64.4396 20.0465 64.4396 18.9585V6.7665C64.4396 6.4785 64.5196 6.2545 64.6796 6.0945C64.8556 5.9185 65.0796 5.83049 65.3516 5.83049C65.6236 5.83049 65.8476 5.9185 66.0236 6.0945C66.1996 6.2545 66.2876 6.4785 66.2876 6.7665V18.9585C66.2876 20.0465 66.0476 21.0145 65.5676 21.8625C65.0876 22.7105 64.4236 23.3745 63.5756 23.8545C62.7276 24.3345 61.7596 24.5745 60.6716 24.5745ZM65.3276 3.3345C64.9756 3.3345 64.6716 3.2065 64.4156 2.95049C64.1596 2.6945 64.0316 2.3825 64.0316 2.0145C64.0316 1.6145 64.1596 1.3025 64.4156 1.07849C64.6876 0.838495 64.9996 0.718495 65.3516 0.718495C65.6876 0.718495 65.9836 0.838495 66.2396 1.07849C66.5116 1.3025 66.6476 1.6145 66.6476 2.0145C66.6476 2.3825 66.5196 2.6945 66.2636 2.95049C66.0076 3.2065 65.6956 3.3345 65.3276 3.3345ZM75.2193 19.0785C74.2753 19.0785 73.3393 18.9185 72.4113 18.5985C71.4833 18.2785 70.7313 17.7985 70.1553 17.1585C69.9793 16.9665 69.9073 16.7505 69.9393 16.5105C69.9713 16.2705 70.0913 16.0625 70.2993 15.8865C70.5233 15.7265 70.7553 15.6625 70.9953 15.6945C71.2353 15.7265 71.4353 15.8305 71.5953 16.0065C71.9793 16.4545 72.4833 16.7985 73.1073 17.0385C73.7473 17.2785 74.4513 17.3985 75.2193 17.3985C76.4033 17.3985 77.2593 17.1985 77.7873 16.7985C78.3153 16.3825 78.5873 15.8865 78.6033 15.3105C78.6033 14.7345 78.3313 14.2625 77.7873 13.8945C77.2433 13.5105 76.3473 13.2145 75.0993 13.0065C73.4833 12.7505 72.2993 12.3025 71.5473 11.6625C70.7953 11.0225 70.4193 10.2625 70.4193 9.3825C70.4193 8.5665 70.6353 7.8865 71.0673 7.3425C71.4993 6.7985 72.0753 6.3905 72.7953 6.1185C73.5153 5.8465 74.3073 5.71049 75.1713 5.71049C76.2433 5.71049 77.1633 5.8945 77.9313 6.2625C78.7153 6.6305 79.3473 7.1265 79.8273 7.7505C79.9873 7.9585 80.0513 8.1745 80.0193 8.3985C79.9873 8.6225 79.8593 8.8065 79.6353 8.9505C79.4433 9.0625 79.2193 9.1025 78.9633 9.0705C78.7233 9.0225 78.5153 8.9025 78.3393 8.7105C77.5553 7.8145 76.4833 7.3665 75.1233 7.3665C74.2433 7.3665 73.5393 7.5505 73.0113 7.9185C72.4833 8.2705 72.2193 8.7185 72.2193 9.2625C72.2193 9.8065 72.4513 10.2545 72.9153 10.6065C73.3953 10.9585 74.2913 11.2465 75.6033 11.4705C76.8033 11.6625 77.7473 11.9505 78.4353 12.3345C79.1393 12.7025 79.6353 13.1425 79.9233 13.6545C80.2273 14.1505 80.3793 14.6945 80.3793 15.2865C80.3793 16.0385 80.1553 16.7025 79.7073 17.2785C79.2753 17.8385 78.6673 18.2785 77.8833 18.5985C77.1153 18.9185 76.2273 19.0785 75.2193 19.0785ZM83.0208 22.8465C82.6848 22.8465 82.5168 22.6865 82.5168 22.3665C82.5168 22.1265 82.5888 21.9025 82.7328 21.6945C82.8768 21.5025 83.0208 21.2945 83.1648 21.0705C83.3248 20.8465 83.4048 20.5745 83.4048 20.2545C83.4048 19.8705 83.3088 19.5665 83.1168 19.3425C82.9408 19.1185 82.7568 18.9025 82.5648 18.6945C82.3728 18.4865 82.2768 18.1985 82.2768 17.8305C82.2768 17.4305 82.4048 17.1105 82.6608 16.8705C82.9328 16.6305 83.2688 16.5105 83.6688 16.5105C84.1488 16.5105 84.5408 16.7025 84.8448 17.0865C85.1488 17.4545 85.3008 17.9745 85.3008 18.6465C85.3008 19.0945 85.2368 19.5665 85.1088 20.0625C84.9808 20.5585 84.8048 21.0145 84.5808 21.4305C84.3568 21.8625 84.1088 22.2065 83.8368 22.4625C83.5648 22.7185 83.2928 22.8465 83.0208 22.8465ZM83.2848 8.7825C82.9008 8.7825 82.5648 8.6545 82.2768 8.3985C82.0048 8.1265 81.8688 7.7905 81.8688 7.3905C81.8688 6.9905 82.0048 6.6545 82.2768 6.38249C82.5488 6.1105 82.8848 5.9745 83.2848 5.9745C83.6688 5.9745 83.9888 6.1185 84.2448 6.4065C84.5168 6.6785 84.6528 7.0065 84.6528 7.3905C84.6528 7.7745 84.5168 8.1025 84.2448 8.3745C83.9888 8.6465 83.6688 8.7825 83.2848 8.7825Z" fill="white"/>
</g>
<defs>
<filter id="filter0_d" x="0.54248" y="0.214355" width="88.7583" height="32.3604" filterUnits="userSpaceOnUse" color-interpolation-filters="sRGB">
<feFlood flood-opacity="0" result="BackgroundImageFix"/>
<feColorMatrix in="SourceAlpha" type="matrix" values="0 0 0 0 0 0 0 0 0 0 0 0 0 0 0 0 0 0 127 0" result="hardAlpha"/>
<feOffset dy="4"/>
<feGaussianBlur stdDeviation="2"/>
<feComposite in2="hardAlpha" operator="out"/>
<feColorMatrix type="matrix" values="0 0 0 0 0 0 0 0 0 0 0 0 0 0 0 0 0 0 0.5 0"/>
<feBlend mode="normal" in2="BackgroundImageFix" result="effect1_dropShadow"/>
<feBlend mode="normal" in="SourceGraphic" in2="effect1_dropShadow" result="shape"/>
</filter>
</defs>
</svg>
